<svg xmlns="http://www.w3.org/2000/svg" viewBox="0 0 860.97 260.79"><defs><style>.cls-1{fill:#00a7f5;}.cls-2{fill:#bababa;}</style></defs><g id="txt"><path class="cls-1" d="M210.1,199.14l-22.55,5.77-8.65-27.14H134l-9.33,27.48L102.07,199,155,58.56h5.09Zm-37.82-42.39-15.09-48-16.11,48Z"/><path class="cls-1" d="M294.38,81.11H260.64V201.18h-22V81.11H204.84v-21h89.54Z"/><path class="cls-1" d="M408.68,201.18h-22v-61.9H335.93v61.9h-22V60.08h22v58h50.71v-58h22Z"/><path class="cls-1" d="M523.49,73.48l-54.43,45.79h48.67v20.35H468.89L523,186.08l-14.42,18.83L429,129.78l77.84-73.6Z"/><path class="cls-1" d="M633.38,203h-5.93l-60-84.11v82.25h-22v-143h5.93l60,83.6V59.91h22Z"/><path class="cls-1" d="M761.59,199.14,739,204.91l-8.65-27.14H685.45l-9.33,27.48L653.56,199,706.48,58.56h5.08Zm-37.82-42.39-15.09-48-16.11,48Z"/><path class="cls-1" d="M861,158.61l-66.48,46.47-13.06-17.64,45.45-30.86-59-55.12,65.46-44.94,13.73,17.3L802,103.5Z"/></g><g id="lineas"><rect class="cls-2" x="423.87" y="-423.87" width="12.61" height="860.36" transform="translate(423.87 436.49) rotate(-90)"/><rect class="cls-2" x="423.87" y="-175.69" width="12.61" height="860.36" transform="translate(175.69 684.67) rotate(-90)"/></g><g id="iso"><path class="cls-2" d="M93.59,35.88s7.46-2.35,10.34,4.75c0,0,11.06,12.28,12.27,21.13A4.15,4.15,0,0,1,114,65.92a27,27,0,0,0-6.39,5.89,22.38,22.38,0,0,1-16.69,7.46s-1.42-.15-4.43,6.82C85,89.65,80.8,95,77.74,99.14c-1.86,2.49-4.37,9.11-5,11.09-1.49,4.28-1.93,14.88-.37,17.89,0,0,4.93,11.65,6.26,16.81a41.39,41.39,0,0,1,1.22,16.85c-.11.95-.74,4.66-1,6.85-.35,3.14-.24,9.64,1,12.61s4.62,5.46,5.58,12.85c1,7.21-1.1,17.64-.29,23.91.45,3.5,2,8.51,8.78,11.73,0,0,6.4,1.55,3.52,3.72,0,0-7.38.28-11.7-1.31,0,0-7.38.58-8.34-2.15a11.17,11.17,0,0,1,.8-3.88s-1.62-10.73-6.9-17.79c-3.81-5.09-4.64-7.21-2.7-25.46,0,0-6-3.81-9.58-17.55-1-4-2.65-11-3.94-16.19,0,0-9.24,19.4-8.45,29.15,0,0,4.4,10,5,13.79a33,33,0,0,1-1,13.09c-1.41,4.75,1.61,15.79,2.57,19.54,0,0,2.39,6.46-2.24,6.31,0,0-8-1-10.58.86,0,0-9.14,1.13-11,.28,0,0-3.05-1.14,2.08-3.44,0,0,5.46-.14,7.37-3.59a26.47,26.47,0,0,1,3.2-3.31,199.83,199.83,0,0,1-6.6-20.54c-1.24-4.68-2.07-15.46-2.83-20.22-.48-3,1.09-9.93.14-12.82-2.5-7.66-6.35-13.49-.33-31.89,0,0,3.27-7.73,5.13-12.08,2.54-5.93,2.72-16.67,0-25.43,0,0-5.44-7.76-5.76-15.22,0,0,.65-4.87-7.22-4.74,0,0-5.92,1.3-15.7-7.77L3,66.78s-3-1.51.14-9.91c0,0,5.55-10.56,8.52-13.65l2.07-4.32s1.85-4.81,9.78-2.72c0,0,4.57.65,3.84,3.37,0,0,1.12,8.53-1.59,7.46a3.55,3.55,0,0,1-1.61-2.44s-4-.19-4.89-1.35c0,0-2.09,6.53-3.12,7.68,0,0,1,9.32.15,11.2,0,0,8.34-4.31,13.64,3.24,0,0,10.25-3.09,14.34,2.44,0,0,7,5.26,8.08-1.08l-.15-3.81a20,20,0,0,1-1.2-4S49.21,60,48.65,55.26c0,0-1-3.09,1.12-2.58,0,0-3.61-9.4,6.25-12,0,0,12.81-2.93,11.69,11.06,0,0,4.65-1.09,0,7,0,0-1.38-.32-1.12.3.16.36.41,4.24.41,4.24s.32,6.11,5.61,5.1c0,0,9.44-6.62,14-2.88,0,0,6-7.62,14.11-3.58,0,0,2.56.42,3.29-1.8,0,0-5.06-4.1-3.84-15.3,0,0-.4-3.95-2.18-3l-1.77.34s-.39,2.9-5.61,2.62c0,0,.19,1-.06,1.21-.82.69-3.56.55-4.49,0-2.14-1.25-2.36-7.42,2.56-8.84Z"/></g></svg>